<?xml version="1.0" encoding="utf-8"?>
<!-- Generator: Adobe Illustrator 23.0.2, SVG Export Plug-In . SVG Version: 6.00 Build 0)  -->
<svg version="1.1" id="Layer_1" xmlns="http://www.w3.org/2000/svg" xmlns:xlink="http://www.w3.org/1999/xlink" x="0px" y="0px"
	 viewBox="0 0 48 48" style="enable-background:new 0 0 48 48;" xml:space="preserve">
<style type="text/css">
	.st0{fill:#F2FAF9;}
	.st1{opacity:0.2;fill:#009B85;}
	.st2{fill:#009B85;}
	.st3{fill:none;}
</style>
<g>
	<g>
		<path class="st0" d="M24,4.6C13.3,4.6,4.6,13.3,4.6,24c0,10.7,8.7,19.4,19.4,19.4c10.7,0,19.4-8.7,19.4-19.4
			C43.4,13.3,34.7,4.6,24,4.6"/>
		<path class="st1" d="M18,38.1L18,38.1c-2.8,0-5.2-2.3-5.2-5.2v-4.8c0-2.8,2.3-5.2,5.2-5.2h0c2.8,0,5.2,2.3,5.2,5.2v4.8
			C23.2,35.8,20.9,38.1,18,38.1z"/>
		<polygon class="st1" points="33.4,14.1 33.4,23 31.3,23 31.3,14.1 32.3,11.4 		"/>
		<path class="st2" d="M18.9,25c-0.2,0-0.4-0.2-0.4-0.4v-6.8c0-0.2,0.2-0.4,0.4-0.4c0.2,0,0.4,0.2,0.4,0.4v6.8
			C19.3,24.8,19.1,25,18.9,25z"/>
		<path class="st2" d="M18.9,37.7c-3.1,0-5.6-2.5-5.6-5.6v-4.7c0-3.1,2.5-5.6,5.6-5.6s5.6,2.5,5.6,5.6v4.7
			C24.5,35.2,22,37.7,18.9,37.7z M18.9,22.6c-2.6,0-4.8,2.2-4.8,4.8v4.7c0,2.6,2.2,4.8,4.8,4.8s4.8-2.2,4.8-4.8v-4.7
			C23.7,24.8,21.6,22.6,18.9,22.6z"/>
		<path class="st2" d="M24.1,27H13.8c-0.2,0-0.4-0.2-0.4-0.4c0-0.2,0.2-0.4,0.4-0.4h10.3c0.2,0,0.4,0.2,0.4,0.4
			C24.4,26.8,24.3,27,24.1,27z"/>
		<path class="st2" d="M18.9,27c-0.2,0-0.4-0.2-0.4-0.4v-4.4c0-0.2,0.2-0.4,0.4-0.4c0.2,0,0.4,0.2,0.4,0.4v4.4
			C19.3,26.8,19.1,27,18.9,27z"/>
		<path class="st2" d="M26.1,18.2c-0.2,0-0.4-0.2-0.4-0.4c0-1.8-1.4-3.2-3.2-3.2c-1.8,0-3.2,1.4-3.2,3.2c0,0.2-0.2,0.4-0.4,0.4
			c-0.2,0-0.4-0.2-0.4-0.4c0-2.2,1.8-4,4-4s4,1.8,4,4C26.5,18.1,26.3,18.2,26.1,18.2z"/>
		<path class="st2" d="M29.6,31c-2.2,0-4-1.8-4-4c0-0.2,0.2-0.4,0.4-0.4c0.2,0,0.4,0.2,0.4,0.4c0,1.8,1.4,3.2,3.2,3.2
			s3.2-1.4,3.2-3.2c0-0.2,0.2-0.4,0.4-0.4c0.2,0,0.4,0.2,0.4,0.4C33.6,29.3,31.8,31,29.6,31z"/>
		<path class="st2" d="M33.2,27.5c-0.2,0-0.4-0.2-0.4-0.4v-4.9c0-0.2,0.2-0.4,0.4-0.4c0.2,0,0.4,0.2,0.4,0.4v4.9
			C33.6,27.3,33.4,27.5,33.2,27.5z"/>
		<path class="st2" d="M26.1,27.5c-0.2,0-0.4-0.2-0.4-0.4v-9.2c0-0.2,0.2-0.4,0.4-0.4c0.2,0,0.4,0.2,0.4,0.4v9.2
			C26.5,27.3,26.3,27.5,26.1,27.5z"/>
		<path class="st2" d="M34.3,22.6h-2.1c-0.2,0-0.4-0.2-0.4-0.4v-8.9c0-0.2,0.2-0.4,0.4-0.4h2.1c0.2,0,0.4,0.2,0.4,0.4v8.9
			C34.7,22.4,34.5,22.6,34.3,22.6z M32.5,21.8h1.4v-8.1h-1.4V21.8z"/>
		<path class="st2" d="M34.3,13.7c-0.2,0-0.3-0.1-0.4-0.2l-0.7-1.7l-0.7,1.7c-0.1,0.2-0.3,0.3-0.5,0.2c-0.2-0.1-0.3-0.3-0.2-0.5
			l1.1-2.6c0.1-0.1,0.2-0.2,0.4-0.2c0,0,0,0,0,0c0.2,0,0.3,0.1,0.4,0.2l1.1,2.6c0.1,0.2,0,0.4-0.2,0.5
			C34.4,13.7,34.3,13.7,34.3,13.7z"/>
	</g>
	<rect class="st3" width="48" height="48"/>
</g>
</svg>
