<?xml version="1.0" encoding="utf-8"?>
<!-- Generator: Adobe Illustrator 23.0.2, SVG Export Plug-In . SVG Version: 6.00 Build 0)  -->
<svg version="1.1" id="Layer_1" xmlns="http://www.w3.org/2000/svg" xmlns:xlink="http://www.w3.org/1999/xlink" x="0px" y="0px"
	 viewBox="0 0 48 48" style="enable-background:new 0 0 48 48;" xml:space="preserve">
<style type="text/css">
	.st0{fill:none;}
	.st1{fill:#F2FAF9;}
	.st2{opacity:0.2;fill:#009B85;}
	.st3{fill:#FFFFFF;}
	.st4{fill:#009B85;}
</style>
<g>
	<rect class="st0" width="48" height="48"/>
	<g>
		<circle class="st1" cx="24" cy="24" r="19.4"/>
		<path class="st2" d="M34.8,17.2v14.5c0,0.7-0.5,1.2-1.2,1.2H13.3c-0.7,0-1.2-0.5-1.2-1.2V17.2c0-0.7,0.5-1.2,1.2-1.2h20.3
			C34.2,16.1,34.8,16.6,34.8,17.2z"/>
		<g>
			<path class="st3" d="M28.9,22.7L27,24.1c-0.3,0.2-0.4,0.6-0.3,0.9l0.7,2.2c0,0.1,0,0.2-0.1,0.3c-0.1,0.1-0.2,0.1-0.3,0l-1.9-1.4
				c-0.3-0.2-0.7-0.2-0.9,0l-1.9,1.4c-0.1,0.1-0.2,0.1-0.3,0c-0.1-0.1-0.1-0.2-0.1-0.3l0.7-2.2c0.1-0.3,0-0.7-0.3-0.9l-1.9-1.4
				c-0.1-0.1-0.1-0.2-0.1-0.3c0-0.1,0.1-0.2,0.3-0.2h2.3c0.3,0,0.7-0.2,0.8-0.6l0.7-2.2c0-0.1,0.1-0.2,0.3-0.2
				c0.1,0,0.2,0.1,0.3,0.2l0.7,2.2c0.1,0.3,0.4,0.6,0.8,0.6h2.3c0.1,0,0.2,0.1,0.3,0.2C29.1,22.5,29,22.6,28.9,22.7z"/>
			<path class="st4" d="M27.2,27.9c-0.1,0-0.3,0-0.4-0.1l-1.9-1.4c-0.1-0.1-0.3-0.1-0.5,0l-1.9,1.4c-0.2,0.2-0.5,0.2-0.8,0
				c-0.2-0.2-0.3-0.5-0.2-0.7l0.7-2.2c0.1-0.2,0-0.3-0.1-0.4L20.2,23c-0.2-0.2-0.3-0.5-0.2-0.7c0.1-0.3,0.3-0.5,0.6-0.5c0,0,0,0,0,0
				h2.3c0,0,0,0,0,0c0.2,0,0.3-0.1,0.4-0.3l0.7-2.2c0.1-0.3,0.3-0.5,0.6-0.5c0.3,0,0.5,0.2,0.6,0.5l0.7,2.2c0.1,0.2,0.2,0.3,0.4,0.3
				c0,0,0,0,0,0h2.4c0,0,0,0,0,0c0.3,0,0.5,0.2,0.6,0.5c0.1,0.3,0,0.6-0.2,0.7l-1.9,1.4c-0.1,0.1-0.2,0.3-0.1,0.4l0.7,2.2
				c0.1,0.3,0,0.6-0.2,0.7C27.5,27.9,27.3,27.9,27.2,27.9z M27.1,27.3C27.1,27.3,27.1,27.3,27.1,27.3L27.1,27.3z M24.7,25.6
				c0.2,0,0.5,0.1,0.7,0.2l1.6,1.1l-0.6-1.9c-0.2-0.5,0-1,0.4-1.3l1.6-1.1h-2c0,0,0,0,0,0c-0.5,0-1-0.3-1.1-0.8l-0.6-1.9l-0.6,1.9
				c-0.2,0.5-0.6,0.8-1.1,0.8c0,0,0,0,0,0h-2l1.6,1.1c0.4,0.3,0.6,0.8,0.4,1.3l-0.6,1.9l1.6-1.1C24.2,25.6,24.4,25.6,24.7,25.6z
				 M20.6,22.6C20.6,22.6,20.6,22.6,20.6,22.6L20.6,22.6z M28.8,22.6L28.8,22.6C28.8,22.6,28.8,22.6,28.8,22.6L28.8,22.6z
				 M28.7,22.4C28.7,22.4,28.7,22.4,28.7,22.4L28.7,22.4z M20.7,22.4L20.7,22.4C20.7,22.4,20.7,22.4,20.7,22.4z"/>
		</g>
		<path class="st4" d="M34.8,32.3H14.5c-0.9,0-1.6-0.7-1.6-1.6V16.3c0-0.9,0.7-1.6,1.6-1.6h20.3c0.9,0,1.6,0.7,1.6,1.6v14.5
			C36.4,31.6,35.7,32.3,34.8,32.3z M14.5,15.5c-0.4,0-0.8,0.4-0.8,0.8v14.5c0,0.4,0.4,0.8,0.8,0.8h20.3c0.4,0,0.8-0.4,0.8-0.8V16.3
			c0-0.4-0.4-0.8-0.8-0.8H14.5z"/>
		<path class="st4" d="M31.4,36.4H18c-0.2,0-0.4-0.2-0.4-0.4s0.2-0.4,0.4-0.4h13.4c0.2,0,0.4,0.2,0.4,0.4S31.6,36.4,31.4,36.4z"/>
		<path class="st4" d="M24.7,36.4c-0.2,0-0.4-0.2-0.4-0.4v-2.5c0-0.2,0.2-0.4,0.4-0.4s0.4,0.2,0.4,0.4V36
			C25.1,36.3,24.9,36.4,24.7,36.4z"/>
	</g>
</g>
</svg>
