<?xml version="1.0" encoding="utf-8"?>
<!-- Generator: Adobe Illustrator 23.0.1, SVG Export Plug-In . SVG Version: 6.00 Build 0)  -->
<svg version="1.1" id="Layer_1" xmlns="http://www.w3.org/2000/svg" xmlns:xlink="http://www.w3.org/1999/xlink" x="0px" y="0px"
	 viewBox="0 0 60 60" style="enable-background:new 0 0 60 60;" xml:space="preserve">
<style type="text/css">
	.st0{fill:#FFFFFF;}
	.st1{fill:#C5194A;}
	.st2{fill:#70B84C;}
</style>
<rect class="st0" width="60" height="60"/>
<g>
	<path d="M18.93,0.14c0.17,0,0.34,0,0.51,0c0.35,0.14,0.7,0.27,1.05,0.41c0.17,0.07,0.33,0.09,0.51,0.03
		c0.54-0.16,1.05-0.11,1.53,0.2c0.06,0.04,0.12,0.06,0.18,0.1C22.89,1.01,23.08,1.03,23.3,1c0.24-0.03,0.49-0.03,0.74,0
		c0.46,0.05,0.81,0.32,1.12,0.64c0.14,0.14,0.26,0.34,0.43,0.41c0.18,0.07,0.41,0.03,0.62,0.02c0.15-0.01,0.27,0.04,0.39,0.12
		c0.56,0.36,1.05,0.81,1.48,1.32c0.85,1.01,1.44,2.17,1.85,3.41c0.02,0.07,0.05,0.14,0.08,0.24c0.03-0.09,0.06-0.15,0.08-0.21
		c0.3-0.9,0.69-1.75,1.2-2.54c0.53-0.82,1.18-1.54,1.98-2.11c0.23-0.16,0.46-0.26,0.75-0.22c0.08,0.01,0.16-0.01,0.23,0
		c0.13,0.02,0.23-0.02,0.32-0.13c0.13-0.15,0.28-0.29,0.42-0.43c0.45-0.44,1.01-0.64,1.63-0.54c0.33,0.06,0.6-0.01,0.87-0.19
		c0.05-0.03,0.11-0.06,0.16-0.09c0.28-0.15,0.57-0.23,0.89-0.2c0.2,0.02,0.4,0.05,0.59,0.1c0.11,0.03,0.21,0.02,0.31-0.02
		c0.39-0.15,0.79-0.3,1.18-0.45c0.15,0,0.31,0,0.46,0c0.28,0.13,0.55,0.25,0.86,0.39c0.19-0.05,0.42-0.13,0.65-0.18
		c0.56-0.13,1.12-0.11,1.6,0.23c0.25,0.18,0.49,0.23,0.77,0.18c0.02,0,0.05-0.01,0.07-0.01c0.48,0.01,0.94,0.07,1.29,0.46
		c0.09,0.11,0.19,0.13,0.32,0.12c0.3-0.01,0.6-0.02,0.9,0.01c0.64,0.06,1.22,0.28,1.64,0.8c0.06,0.08,0.13,0.09,0.22,0.09
		c0.27,0,0.54-0.01,0.81,0.04c0.61,0.11,1.07,0.43,1.23,1.07c0.08,0.33,0.05,0.66-0.07,0.98c-0.05,0.14-0.15,0.28-0.14,0.41
		c0.01,0.14,0.14,0.27,0.22,0.4c0.26,0.47,0.27,0.94,0.03,1.41c-0.09,0.18-0.2,0.34-0.32,0.51c-0.05,0.08-0.08,0.14-0.04,0.23
		c0.17,0.41,0.12,0.81-0.06,1.21c-0.14,0.3-0.33,0.57-0.56,0.82c-0.07,0.08-0.1,0.16-0.08,0.27c0.1,0.62-0.08,1.16-0.54,1.6
		c-0.1,0.1-0.22,0.2-0.33,0.29c-0.07,0.05-0.1,0.1-0.1,0.19c0.01,0.52-0.19,0.96-0.53,1.34c-0.25,0.28-0.55,0.51-0.88,0.71
		c-0.13,0.08-0.21,0.18-0.24,0.34c-0.13,0.57-0.47,1-0.99,1.27c-0.25,0.12-0.51,0.22-0.77,0.31c-0.12,0.04-0.19,0.1-0.23,0.22
		c-0.13,0.46-0.42,0.79-0.85,0.98c-0.26,0.12-0.53,0.2-0.8,0.29c-0.09,0.03-0.19,0.05-0.32,0.09c0.1,0.06,0.16,0.11,0.23,0.14
		c0.58,0.35,1.15,0.72,1.69,1.14c1.37,1.07,2.36,2.4,2.91,4.05c0.36,1.09,0.54,2.22,0.55,3.36c0,0.46,0.12,0.84,0.37,1.2
		c0.06,0.08,0.12,0.16,0.2,0.21c0.57,0.37,1.08,0.8,1.52,1.31c1.63,1.88,2.49,4.05,2.43,6.56c-0.01,0.59-0.08,1.17-0.22,1.74
		c-0.36,1.47-1.07,2.75-2.06,3.89c-0.09,0.11-0.15,0.22-0.18,0.36c-0.08,0.35-0.14,0.71-0.26,1.05c-0.3,0.9-0.61,1.79-0.92,2.69
		c-0.03,0.1-0.06,0.21-0.08,0.31c-0.3,1.98-1.12,3.71-2.45,5.19c-0.94,1.04-2.02,1.91-3.31,2.47c-0.49,0.21-0.95,0.47-1.37,0.8
		c-0.05,0.04-0.1,0.07-0.15,0.11c-1.55,1.1-3.18,2.03-4.98,2.66c-0.14,0.05-0.24,0.12-0.34,0.22c-0.84,0.83-1.78,1.55-2.84,2.09
		c-1.4,0.72-2.88,1.06-4.45,1.07c-1.56,0.01-3.05-0.29-4.46-0.97c-1.15-0.56-2.16-1.31-3.06-2.21c-0.1-0.1-0.2-0.16-0.33-0.2
		c-0.74-0.26-1.46-0.58-2.16-0.93c-1.26-0.64-2.43-1.43-3.56-2.27c-0.07-0.05-0.15-0.12-0.23-0.14c-0.68-0.22-1.3-0.57-1.88-0.97
		c-2.19-1.52-3.68-3.54-4.26-6.16c-0.15-0.69-0.33-1.37-0.59-2.04c-0.35-0.93-0.65-1.88-0.84-2.86c-0.02-0.08-0.07-0.15-0.12-0.22
		c-0.16-0.21-0.34-0.4-0.49-0.61c-0.92-1.22-1.53-2.58-1.76-4.1c-0.03-0.23-0.08-0.45-0.12-0.68c0-0.39,0-0.77,0-1.16
		c0.03-0.1,0.07-0.2,0.08-0.31c0.15-1.45,0.63-2.79,1.39-4.03c0.58-0.95,1.29-1.79,2.21-2.43c0.33-0.23,0.59-0.5,0.77-0.86
		c0.07-0.14,0.11-0.26,0.11-0.42c0.01-0.94,0.1-1.88,0.3-2.8c0.43-1.9,1.37-3.49,2.86-4.74c0.62-0.52,1.28-0.96,1.97-1.37
		c0.07-0.04,0.14-0.09,0.24-0.14c-0.07-0.03-0.11-0.05-0.15-0.06c-0.29-0.09-0.58-0.17-0.85-0.28c-0.48-0.2-0.82-0.55-0.96-1.06
		c-0.03-0.11-0.09-0.16-0.2-0.19c-0.26-0.09-0.51-0.17-0.75-0.29c-0.55-0.27-0.9-0.71-1.04-1.31c-0.03-0.14-0.09-0.23-0.22-0.31
		c-0.36-0.22-0.7-0.48-0.97-0.81c-0.21-0.26-0.38-0.55-0.43-0.88c-0.03-0.16,0.02-0.34-0.05-0.47c-0.07-0.14-0.25-0.22-0.37-0.34
		c-0.47-0.45-0.69-1-0.57-1.65c0.02-0.1-0.02-0.17-0.08-0.25C9.36,9.07,9.16,8.82,9.02,8.56c-0.22-0.4-0.29-0.83-0.1-1.27
		C8.95,7.2,8.94,7.13,8.88,7.06c-0.1-0.14-0.2-0.29-0.29-0.45C8.31,6.09,8.32,5.58,8.62,5.07c0.07-0.12,0.14-0.24,0.2-0.33
		C8.74,4.51,8.65,4.3,8.6,4.08C8.41,3.22,8.83,2.53,9.69,2.3c0.31-0.08,0.62-0.1,0.94-0.07c0.1,0.01,0.17-0.02,0.24-0.1
		c0.29-0.37,0.69-0.59,1.14-0.7c0.45-0.12,0.91-0.14,1.38-0.09c0.14,0.01,0.24-0.02,0.34-0.13c0.22-0.25,0.51-0.38,0.83-0.41
		c0.21-0.02,0.43-0.03,0.64-0.01c0.21,0.02,0.39,0.01,0.55-0.15c0.06-0.06,0.14-0.09,0.22-0.13c0.47-0.24,0.96-0.26,1.46-0.15
		c0.24,0.05,0.47,0.13,0.66,0.18C18.39,0.39,18.66,0.26,18.93,0.14z"/>
	<g>

			<ellipse transform="matrix(0.4174 -0.9087 0.9087 0.4174 -15.4613 38.1079)" class="st1" cx="21.99" cy="31.11" rx="7.19" ry="6.2"/>
		<path class="st1" d="M12.5,28.2c-1.44-0.14-3.74,1.57-4.13,5.35c-0.32,3.14,0.99,6,2.3,6.11C13.34,39.9,15.15,28.28,12.5,28.2z"/>
		<path class="st1" d="M22.8,17.97c0,0-3.72-1.34-7.36,1.68c-3.42,2.84-2.49,6.17-2.31,6.35C14.3,27.18,23.92,18.76,22.8,17.97z"/>
		<path class="st1" d="M12.8,40.43c-0.54,0.44-2.58,3.8,0.94,8.18c3.6,4.48,7.21,2.69,7.56,2.39c0.35-0.29,2.33-3.19-1.58-7.84
			C15.98,38.71,13.16,40.14,12.8,40.43z"/>
		<path class="st1" d="M30,57.58c-2.08,0-6.98-1.55-6.74-3.86c0.24-2.31,6.74-2.46,6.74-2.46s6.49,0.16,6.74,2.46
			C36.98,56.02,32.08,57.58,30,57.58z"/>
		<path class="st1" d="M35.94,20.04c0,3.49-5.14,3.69-5.94,3.69c-0.81,0-5.94-0.2-5.94-3.69c0-2.58,4.24-3.4,5.94-3.4
			S35.94,17.46,35.94,20.04z"/>

			<ellipse transform="matrix(0.9087 -0.4174 0.4174 0.9087 -9.5158 18.7042)" class="st1" cx="38.01" cy="31.11" rx="6.2" ry="7.19"/>
		<ellipse class="st1" cx="30" cy="42.97" rx="6.85" ry="6.19"/>
		<path class="st1" d="M47.5,28.2c1.44-0.14,3.74,1.57,4.13,5.35c0.32,3.14-0.99,6-2.3,6.11C46.66,39.9,44.85,28.28,47.5,28.2z"/>
		<path class="st1" d="M37.2,17.97c0,0,3.72-1.34,7.36,1.68c3.42,2.84,2.49,6.17,2.31,6.35C45.7,27.18,36.08,18.76,37.2,17.97z"/>
		<path class="st1" d="M47.2,40.43c0.54,0.44,2.58,3.8-0.94,8.18c-3.6,4.48-7.21,2.69-7.56,2.39c-0.35-0.29-2.33-3.19,1.58-7.84
			C44.02,38.71,46.84,40.14,47.2,40.43z"/>
	</g>
	<g>
		<path class="st2" d="M33.32,11.8c0,0-4.83-1.82,0.6-8.36c0,0,0.08,0.91,0.41,0.87c0.33-0.05,1.14-1.73,1.93-2.01
			c0,0-0.08,0.92,0.31,1.04c0,0,0.91-1.02,1.73-1.5c0,0-0.28,0.96,0.25,1.16c0,0,0.99-1.14,2.21-1.47c0,0-0.73,0.83-0.21,1.12
			c0,0,1.27-0.94,2.62-0.99c0,0-0.97,0.59-0.54,1.09c0,0,1.98-0.69,2.53-0.64c0,0-0.99,0.69-0.4,0.99c0,0,2.24-0.71,3-0.28
			c0,0-0.69,0.66-0.63,0.71c0,0,0.64,0.21,2.74,0.08c0,0-1.02,1.57-1.06,2.13c0,0,0.3,0.15,1.17,0c0,0-0.45,0.96-1.7,1.88
			c0,0,0.18,0.4,1.27,0.12c0,0-0.96,1.6-1.8,1.91c0,0-0.03,0.25,1.07,0.21c0,0-1.49,1.49-2.16,1.63c0,0,0.1,0.31,1.17,0.25
			c0,0-1.14,1.06-2.69,1.63c0,0,0.25,0.35,1.04,0.3c0,0-1.09,0.83-2.74,1.09c0,0,0.03,0.39,0.75,0.5c0,0-1.26,0.63-3.08,0.68
			c0,0,0.16,0.42,0.7,0.66c0,0-6.4,0.65-7.56-3.75c0,0,5.7-5.1,10.84-7.27C45.1,5.58,37.03,8.46,33.32,11.8z"/>
		<path class="st2" d="M26.68,11.8c0,0,4.83-1.82-0.6-8.36c0,0-0.08,0.91-0.41,0.87c-0.33-0.05-1.14-1.73-1.93-2.01
			c0,0,0.08,0.92-0.31,1.04c0,0-0.91-1.02-1.73-1.5c0,0,0.28,0.96-0.25,1.16c0,0-0.99-1.14-2.21-1.47c0,0,0.73,0.83,0.21,1.12
			c0,0-1.27-0.94-2.62-0.99c0,0,0.97,0.59,0.54,1.09c0,0-1.98-0.69-2.53-0.64c0,0,0.99,0.69,0.4,0.99c0,0-2.24-0.71-3-0.28
			c0,0,0.69,0.66,0.63,0.71c0,0-0.64,0.21-2.74,0.08c0,0,1.02,1.57,1.06,2.13c0,0-0.3,0.15-1.17,0c0,0,0.45,0.96,1.7,1.88
			c0,0-0.18,0.4-1.27,0.12c0,0,0.96,1.6,1.8,1.91c0,0,0.03,0.25-1.07,0.21c0,0,1.49,1.49,2.16,1.63c0,0-0.1,0.31-1.17,0.25
			c0,0,1.14,1.06,2.69,1.63c0,0-0.25,0.35-1.04,0.3c0,0,1.09,0.83,2.74,1.09c0,0-0.03,0.39-0.75,0.5c0,0,1.26,0.63,3.08,0.68
			c0,0-0.16,0.42-0.7,0.66c0,0,6.4,0.65,7.56-3.75c0,0-5.7-5.1-10.84-7.27C14.9,5.58,22.97,8.46,26.68,11.8z"/>
	</g>
</g>
</svg>
